<svg version="1" xmlns="http://www.w3.org/2000/svg" width="293.333" height="253.333" viewBox="0 0 220.000000 190.000000"><path d="M107.7 3.2C102.7 11.1 1 189.3 1.3 189.6c.2.2 49.2.3 109 .2l108.6-.3-11-19c-6.1-10.5-12.3-21.3-13.8-24-1.5-2.8-5.1-8.8-7.8-13.5-2.8-4.7-9.3-15.9-14.5-25-15-26.1-60-103.3-61.4-105.3-1.2-1.8-1.3-1.8-2.7.5zm13 24.3c4.8 8.2 14.5 25 21.6 37.3 7.1 12.3 12.7 22.5 12.5 22.6-.4.4-79.6-16.9-80.2-17.5-.4-.4 17.3-31.9 30.6-54.3 4.8-8.2 3.3-9.4 15.5 11.9zm17.7 66.8l23.8 5.3 6.7 11.4c3.6 6.3 8.1 14.1 9.9 17.2l3.2 5.8H99.5l3.7-2.5c11.2-7.6 16-25.9 10-38.3-1.8-3.7-1.8-4.2-.4-4.1 1 0 12.4 2.4 25.6 5.2zm-80.3 30.4c1.7 2.3 4.6 5.4 6.7 6.8l3.7 2.5H36.8l1.4-2.3c.8-1.2 4.1-6.9 7.3-12.6l5.9-10.4 1.9 5.8c1 3.2 3.2 7.8 4.8 10.2zm21 21c.1 1 .4 10.2.8 20.6l.6 18.7H44.3c-20 0-36.3-.2-36.3-.5 0-.4 4.2-7.8 18.7-32.8l4.5-7.7h23.9c22 0 23.9.1 24 1.7zm120.5 18.6c6.3 10.9 11.4 20.1 11.4 20.3 0 .2-27.2.4-60.5.4-47.6 0-60.6-.3-61-1.3-.2-.6-.5-9.9-.8-20.5l-.3-19.2 49.8.2 49.9.3 11.5 19.8z"/></svg>