<?xml version="1.0" standalone="no"?>
<!DOCTYPE svg PUBLIC "-//W3C//DTD SVG 20010904//EN"
 "http://www.w3.org/TR/2001/REC-SVG-20010904/DTD/svg10.dtd">
<svg version="1.0" xmlns="http://www.w3.org/2000/svg"
 width="220.000000pt" height="190.000000pt" viewBox="0 0 220.000000 190.000000"
 preserveAspectRatio="xMidYMid meet">
<metadata>
Created by potrace 1.13, written by Peter Selinger 2001-2015
</metadata>
<g transform="translate(0.000000,190.000000) scale(0.100000,-0.100000)"
fill="#000000" stroke="none">
<path d="M1077 1868 c-50 -79 -1067 -1861 -1064 -1864 2 -2 492 -3 1090 -2
l1086 3 -110 190 c-61 105 -123 213 -138 240 -15 28 -51 88 -78 135 -28 47
-93 159 -145 250 -150 261 -600 1033 -614 1053 -12 18 -13 18 -27 -5z m130
-243 c48 -82 145 -250 216 -373 71 -123 127 -225 125 -226 -4 -4 -796 169
-802 175 -4 4 173 319 306 543 48 82 33 94 155 -119z m177 -668 l238 -53 67
-114 c36 -63 81 -141 99 -172 l32 -58 -412 0 -413 0 37 25 c112 76 160 259
100 383 -18 37 -18 42 -4 41 10 0 124 -24 256 -52z m-803 -304 c17 -23 46 -54
67 -68 l37 -25 -159 0 -158 0 14 23 c8 12 41 69 73 126 l59 104 19 -58 c10
-32 32 -78 48 -102z m210 -210 c1 -10 4 -102 8 -206 l6 -187 -362 0 c-200 0
-363 2 -363 5 0 4 42 78 187 328 l45 77 239 0 c220 0 239 -1 240 -17z m1205
-186 c63 -109 114 -201 114 -203 0 -2 -272 -4 -605 -4 -476 0 -606 3 -610 13
-2 6 -5 99 -8 205 l-3 192 498 -2 499 -3 115 -198z"/>
</g>
</svg>
